<svg width="20" height="18" viewBox="0 0 20 18" fill="none" xmlns="http://www.w3.org/2000/svg">
<circle cx="6" cy="4" r="2.5" fill="#F8F8F8" stroke="#878CA0"/>
<circle cx="14" cy="3" r="2.5" fill="#F8F8F8" stroke="#878CA0"/>
<path d="M9.5 10V14.5H2.5V10C2.5 8.067 4.067 6.5 6 6.5C7.933 6.5 9.5 8.067 9.5 10Z" fill="#F8F8F8" stroke="#878CA0"/>
<path d="M17.5 9V13.5H10.5V9C10.5 7.067 12.067 5.5 14 5.5C15.933 5.5 17.5 7.067 17.5 9Z" fill="#F8F8F8" stroke="#878CA0"/>
<circle cx="10" cy="7" r="2.5" fill="#F8F8F8" stroke="#878CA0"/>
<path d="M13.5 13V17.5H6.5V13C6.5 11.067 8.067 9.5 10 9.5C11.933 9.5 13.5 11.067 13.5 13Z" fill="#F8F8F8" stroke="#878CA0"/>
</svg>
