<svg width="20" height="18" viewBox="0 0 20 18" fill="none" xmlns="http://www.w3.org/2000/svg">
<rect x="2.5" y="2.5" width="15" height="14" rx="2.5" stroke="#878CA0"/>
<rect x="5.5" y="1.5" width="2" height="3" rx="1" fill="white" stroke="#878CA0"/>
<rect x="12.5" y="1.5" width="2" height="3" rx="1" fill="white" stroke="#878CA0"/>
<path d="M3 6H17" stroke="#878CA0"/>
<path d="M8.20801 14.0684C7.85938 14.0684 7.5472 14.0091 7.27148 13.8906C6.99805 13.7721 6.78158 13.6058 6.62207 13.3916C6.46484 13.1751 6.38281 12.9302 6.37598 12.6567H7.2749C7.28174 12.7889 7.32731 12.9051 7.41162 13.0054C7.49593 13.1034 7.60645 13.1797 7.74316 13.2344C7.87988 13.2891 8.03369 13.3164 8.20459 13.3164C8.38688 13.3164 8.5498 13.2856 8.69336 13.2241C8.83691 13.1626 8.94857 13.076 9.02832 12.9644C9.10807 12.8527 9.14681 12.7251 9.14453 12.5815C9.14453 12.4312 9.10465 12.2979 9.0249 12.1816C8.94515 12.0654 8.82666 11.9754 8.66943 11.9116C8.51449 11.8455 8.33105 11.8125 8.11914 11.8125H7.67822V11.1255H8.11914C8.29232 11.1255 8.44727 11.0959 8.58398 11.0366C8.7207 10.9751 8.82552 10.8896 8.89844 10.7803C8.97363 10.6709 9.01123 10.5456 9.01123 10.4043C9.01123 10.2676 8.97819 10.1468 8.91211 10.042C8.84831 9.9349 8.75602 9.85173 8.63525 9.79248C8.51676 9.73324 8.37777 9.70361 8.21826 9.70361C8.06104 9.70589 7.91634 9.73438 7.78418 9.78906C7.65202 9.84375 7.54492 9.92236 7.46289 10.0249C7.38086 10.1274 7.33757 10.2471 7.33301 10.3838H6.4751C6.48193 10.1104 6.56283 9.86768 6.71777 9.65576C6.875 9.44157 7.08464 9.27637 7.34668 9.16016C7.60872 9.04167 7.90039 8.98242 8.22168 8.98242C8.5498 8.98242 8.83805 9.04395 9.08643 9.16699C9.33708 9.28776 9.53076 9.45296 9.66748 9.6626C9.8042 9.86995 9.87142 10.1001 9.86914 10.353C9.87142 10.5353 9.83496 10.7005 9.75977 10.8486C9.68685 10.9967 9.58089 11.1198 9.44189 11.2178C9.3029 11.3158 9.14339 11.3841 8.96338 11.4229V11.4604C9.19352 11.4924 9.39062 11.5607 9.55469 11.6655C9.72103 11.7681 9.84635 11.9025 9.93066 12.0688C10.015 12.2329 10.0571 12.4186 10.0571 12.626C10.0571 12.8994 9.97738 13.1455 9.81787 13.3643C9.66064 13.583 9.44076 13.755 9.1582 13.8804C8.87793 14.0057 8.5612 14.0684 8.20801 14.0684ZM12.8428 14H11.9473V9.91895H11.9199L10.7612 10.6606V9.84375L11.9883 9.05078H12.8428V14Z" fill="#878CA0"/>
</svg>
