<svg width="16" height="17" viewBox="0 0 16 17" fill="none" xmlns="http://www.w3.org/2000/svg">
<rect x="0.5" y="2" width="15" height="14" rx="2.5" stroke="#878CA0"/>
<rect x="3.5" y="1" width="2" height="3" rx="1" fill="white" stroke="#878CA0"/>
<rect x="10.5" y="1" width="2" height="3" rx="1" fill="white" stroke="#878CA0"/>
<path d="M1 5.5H15" stroke="#878CA0"/>
<path d="M6.20801 13.5684C5.85938 13.5684 5.5472 13.5091 5.27148 13.3906C4.99805 13.2721 4.78158 13.1058 4.62207 12.8916C4.46484 12.6751 4.38281 12.4302 4.37598 12.1567H5.2749C5.28174 12.2889 5.32731 12.4051 5.41162 12.5054C5.49593 12.6034 5.60645 12.6797 5.74316 12.7344C5.87988 12.7891 6.03369 12.8164 6.20459 12.8164C6.38688 12.8164 6.5498 12.7856 6.69336 12.7241C6.83691 12.6626 6.94857 12.576 7.02832 12.4644C7.10807 12.3527 7.14681 12.2251 7.14453 12.0815C7.14453 11.9312 7.10465 11.7979 7.0249 11.6816C6.94515 11.5654 6.82666 11.4754 6.66943 11.4116C6.51449 11.3455 6.33105 11.3125 6.11914 11.3125H5.67822V10.6255H6.11914C6.29232 10.6255 6.44727 10.5959 6.58398 10.5366C6.7207 10.4751 6.82552 10.3896 6.89844 10.2803C6.97363 10.1709 7.01123 10.0456 7.01123 9.9043C7.01123 9.76758 6.97819 9.64681 6.91211 9.54199C6.84831 9.4349 6.75602 9.35173 6.63525 9.29248C6.51676 9.23324 6.37777 9.20361 6.21826 9.20361C6.06104 9.20589 5.91634 9.23438 5.78418 9.28906C5.65202 9.34375 5.54492 9.42236 5.46289 9.5249C5.38086 9.62744 5.33757 9.74707 5.33301 9.88379H4.4751C4.48193 9.61035 4.56283 9.36768 4.71777 9.15576C4.875 8.94157 5.08464 8.77637 5.34668 8.66016C5.60872 8.54167 5.90039 8.48242 6.22168 8.48242C6.5498 8.48242 6.83805 8.54395 7.08643 8.66699C7.33708 8.78776 7.53076 8.95296 7.66748 9.1626C7.8042 9.36995 7.87142 9.6001 7.86914 9.85303C7.87142 10.0353 7.83496 10.2005 7.75977 10.3486C7.68685 10.4967 7.58089 10.6198 7.44189 10.7178C7.3029 10.8158 7.14339 10.8841 6.96338 10.9229V10.9604C7.19352 10.9924 7.39062 11.0607 7.55469 11.1655C7.72103 11.2681 7.84635 11.4025 7.93066 11.5688C8.01497 11.7329 8.05713 11.9186 8.05713 12.126C8.05713 12.3994 7.97738 12.6455 7.81787 12.8643C7.66064 13.083 7.44076 13.255 7.1582 13.3804C6.87793 13.5057 6.5612 13.5684 6.20801 13.5684ZM10.8428 13.5H9.94727V9.41895H9.91992L8.76123 10.1606V9.34375L9.98828 8.55078H10.8428V13.5Z" fill="#878CA0"/>
</svg>
