<svg width="57" height="30" viewBox="0 0 57 30" fill="none" xmlns="http://www.w3.org/2000/svg">
<path d="M9.75855 24.1127C8.64188 24.1127 7.51688 23.996 6.38355 23.7627C5.25021 23.546 4.33354 23.2544 3.63354 22.8877V18.3127C4.55021 18.8127 5.50854 19.1877 6.50854 19.4377C7.52521 19.6877 8.47521 19.8127 9.35855 19.8127C10.6419 19.8127 11.2835 19.471 11.2835 18.7877C11.2835 18.5044 11.1835 18.2627 10.9835 18.0627C10.8002 17.846 10.5169 17.646 10.1335 17.4627C9.75021 17.2627 9.14188 16.9794 8.30855 16.6127C6.69188 15.9127 5.51688 15.146 4.78354 14.3127C4.06688 13.4794 3.70854 12.446 3.70854 11.2127C3.70854 10.1794 3.99188 9.2627 4.55854 8.4627C5.14188 7.64603 5.95021 7.0127 6.98355 6.5627C8.01688 6.1127 9.20855 5.8877 10.5585 5.8877C11.6585 5.8877 12.6335 5.97936 13.4835 6.1627C14.3335 6.32936 15.1585 6.60436 15.9585 6.9877V11.4127C14.5085 10.6127 13.0252 10.2127 11.5085 10.2127C10.8419 10.2127 10.3085 10.3127 9.90855 10.5127C9.50855 10.696 9.30855 10.971 9.30855 11.3377C9.30855 11.7044 9.48355 12.0044 9.83355 12.2377C10.2002 12.4544 10.8835 12.7627 11.8835 13.1627L12.4335 13.3877C13.6169 13.871 14.5252 14.3544 15.1585 14.8377C15.8085 15.3044 16.2752 15.8544 16.5585 16.4877C16.8419 17.1044 16.9835 17.8877 16.9835 18.8377C16.9835 20.4877 16.3835 21.7794 15.1835 22.7127C13.9835 23.646 12.1752 24.1127 9.75855 24.1127Z" fill="#748FFC"/>
<path d="M21.6792 10.6127H16.9792V6.26269H31.5542V10.6127H26.8542V23.7377H21.6792V10.6127Z" fill="#748FFC"/>
<path d="M33.8986 23.7377C33.4153 23.7377 33.0069 23.5794 32.6736 23.2627C32.3403 22.9294 32.1736 22.521 32.1736 22.0377C32.1736 21.5377 32.3403 21.121 32.6736 20.7877C33.0069 20.4377 33.4153 20.2627 33.8986 20.2627C34.3819 20.2627 34.7903 20.4377 35.1236 20.7877C35.4736 21.121 35.6486 21.5377 35.6486 22.0377C35.6486 22.5044 35.4736 22.9044 35.1236 23.2377C34.7903 23.571 34.3819 23.7377 33.8986 23.7377Z" fill="#748FFC"/>
<path d="M45.1914 24.1127C43.358 24.1127 41.833 23.771 40.6164 23.0877C39.3997 22.4044 38.4914 21.4627 37.8914 20.2627C37.308 19.0627 37.0164 17.6877 37.0164 16.1377V6.26269H42.1914V16.0877C42.1914 17.1544 42.4414 17.9627 42.9414 18.5127C43.458 19.0627 44.208 19.3377 45.1914 19.3377C46.1747 19.3377 46.9164 19.0627 47.4164 18.5127C47.933 17.9627 48.1914 17.1544 48.1914 16.0877V6.26269H53.3664V16.1377C53.3664 17.6877 53.0664 19.0627 52.4664 20.2627C51.883 21.4627 50.983 22.4044 49.7664 23.0877C48.5497 23.771 47.0247 24.1127 45.1914 24.1127Z" fill="#748FFC"/>
</svg>
